<svg width="160" height="192" viewBox="0 0 160 192" fill="none" xmlns="http://www.w3.org/2000/svg">
<path d="M22.9549 4.04779H128.955V56.2907C128.955 85.5618 105.226 109.291 75.9549 109.291V109.291C46.6838 109.291 22.9549 85.5618 22.9549 56.2907V4.04779Z" stroke="#3D2B1F" stroke-width="8.0956" stroke-linecap="round" stroke-linejoin="round"/>
<path d="M59.9287 31.9612H92.2334V35.1916H59.9287V31.9612ZM59.9287 48.1135H76.2547V51.344H59.9287V48.1135ZM90.9776 40.0373H59.9287V43.2678H87.7491L90.9776 40.0373ZM69.608 74.1027C70.1509 74.7252 70.8398 75.203 71.613 75.4934C72.3862 75.7838 73.2194 75.8776 74.0378 75.7664H89.7944C90.1693 75.7664 90.5288 75.6175 90.7938 75.3524C91.0589 75.0874 91.2078 74.7279 91.2078 74.3531C91.2078 73.9782 91.0589 73.6187 90.7938 73.3537C90.5288 73.0886 90.1693 72.9397 89.7944 72.9397H74.0378C72.1984 72.9074 72.5255 71.3104 72.784 70.8157C73.1202 70.2348 73.3827 69.6142 73.5653 68.9683C73.6871 68.4483 73.6308 67.9026 73.4052 67.4185C73.1797 66.9345 72.7981 66.5402 72.3216 66.2991C71.5572 65.9551 70.7012 65.8709 69.8845 66.0594C69.0677 66.2479 68.3352 66.6987 67.7989 67.3429C67.1044 68.0597 66.1393 69.156 65.2146 70.2221C65.7859 67.983 66.5269 65.1099 67.2538 62.3074C67.4621 61.6689 67.4206 60.9751 67.1377 60.3659C66.8549 59.7567 66.3516 59.2774 65.7294 59.0245C65.0403 58.788 64.2872 58.8218 63.6221 59.119C62.9569 59.4161 62.4293 59.9546 62.1456 60.6256C61.2734 62.3034 54.3682 73.8746 54.2996 73.9917C54.2044 74.151 54.1415 74.3276 54.1146 74.5112C54.0876 74.6949 54.0971 74.882 54.1425 75.062C54.2341 75.4255 54.4664 75.7377 54.7882 75.93C55.11 76.1222 55.495 76.1787 55.8585 76.0871C56.222 75.9954 56.5342 75.7632 56.7265 75.4413C56.9849 75.0072 62.4969 65.7741 64.2353 62.6911C62.927 67.7387 61.4854 73.3557 61.4006 73.8604C61.3055 74.2315 61.3343 74.6236 61.4826 74.9768C61.631 75.33 61.8907 75.625 62.2223 75.8169C62.5919 76.0002 63.012 76.0552 63.4163 75.9733C63.8207 75.8914 64.1862 75.6773 64.4554 75.3646C64.7098 75.1344 65.1863 74.5873 66.3876 73.1921C67.5069 71.8757 68.6533 70.5825 69.8261 69.3135C70.2662 68.8491 70.5327 69.0551 70.2743 69.5114C69.7686 70.1501 69.4406 70.9112 69.3236 71.7174C69.2066 72.5237 69.3047 73.3466 69.608 74.1027Z" fill="#3D2B1F"/>
<path d="M100.31 59.2082V80.0145H51.8525V23.4811H100.31V33.5622L102.995 30.8769C103.408 30.4691 103.861 30.1039 104.348 29.7866V21.4621C104.348 20.9266 104.135 20.413 103.756 20.0344C103.378 19.6557 102.864 19.443 102.329 19.443H49.8334C49.298 19.443 48.7844 19.6557 48.4058 20.0344C48.0271 20.413 47.8144 20.9266 47.8144 21.4621V82.0335C47.8144 82.569 48.0271 83.0825 48.4058 83.4612C48.7844 83.8398 49.298 84.0525 49.8334 84.0525H102.329C102.864 84.0525 103.378 83.8398 103.756 83.4612C104.135 83.0825 104.348 82.569 104.348 82.0335V58.6671C103.11 59.325 101.677 59.517 100.31 59.2082Z" fill="#3D2B1F"/>
<path d="M112.682 39.3529L111.626 38.2969C112.165 37.5834 112.438 36.704 112.398 35.8108C112.357 34.9175 112.006 34.0665 111.404 33.4047C110.623 32.7159 109.601 32.3638 108.561 32.4251C107.521 32.4863 106.547 32.956 105.852 33.7318L80.5634 59.0164L78.8734 65.3602C78.8467 65.4432 78.8434 65.532 78.864 65.6167C78.8846 65.7015 78.9283 65.7789 78.9902 65.8403C79.052 65.9018 79.1297 65.9449 79.2146 65.9649C79.2995 65.985 79.3882 65.9811 79.4711 65.9538L85.7927 64.2437L109.399 40.637L110.397 41.6364C110.467 41.7058 110.522 41.7884 110.56 41.8794C110.598 41.9703 110.617 42.0679 110.617 42.1664C110.617 42.2649 110.598 42.3625 110.56 42.4534C110.522 42.5444 110.467 42.627 110.397 42.6964L100.469 52.6241C100.166 52.9271 99.9963 53.3381 99.9965 53.7665C99.9967 54.195 100.167 54.6058 100.47 54.9086C100.773 55.2114 101.184 55.3814 101.613 55.3812C102.041 55.3811 102.452 55.2107 102.755 54.9076L112.682 44.9799C113.052 44.6105 113.346 44.1718 113.546 43.6888C113.746 43.2059 113.849 42.6882 113.849 42.1654C113.849 41.6426 113.746 41.1249 113.546 40.6419C113.346 40.159 113.052 39.7203 112.682 39.3508" fill="#3D2B1F"/>
<path d="M3.97197 165.231C2.90487 165.231 2.07491 164.895 1.48208 164.224C0.928768 163.552 0.533547 162.741 0.296414 161.793C0.098804 160.844 -1.17838e-06 159.955 -1.17838e-06 159.125C-1.17838e-06 157.544 0.335936 155.687 1.00781 153.553C1.71921 151.418 2.66774 149.205 3.8534 146.913C5.03906 144.581 6.38281 142.328 7.88465 140.155C9.38649 137.941 10.9476 135.985 12.568 134.286C14.2279 132.586 15.8286 131.321 17.37 130.491C17.6861 130.294 18.2197 130.096 18.9706 129.899C19.7215 129.661 20.3143 129.543 20.7491 129.543C21.1048 129.543 21.2826 129.622 21.2826 129.78C21.2826 129.899 21.1048 130.116 20.7491 130.432C19.4844 131.499 17.7454 133.199 15.5322 135.531C13.3189 137.862 10.8686 141.024 8.18107 145.016C6.56066 147.427 5.15763 149.936 3.97197 152.545C2.82583 155.114 2.25276 157.604 2.25276 160.014C2.25276 160.647 2.39108 161.299 2.66774 161.971C2.94439 162.603 3.47794 162.919 4.26838 162.919C5.17739 162.919 6.28401 162.524 7.58824 161.734C8.89247 160.943 10.2165 159.975 11.5602 158.829C12.9435 157.643 14.2082 156.477 15.3543 155.331C16.54 154.185 17.4688 153.256 18.1406 152.545C20.0772 150.529 21.915 148.415 23.654 146.201C25.4325 143.988 26.9936 141.755 28.3373 139.502C28.614 139.068 28.9104 138.475 29.2266 137.724C29.5428 136.973 29.9182 136.301 30.353 135.708C30.7877 135.116 31.2817 134.819 31.835 134.819C32.2303 134.819 32.665 134.898 33.1393 135.056C33.653 135.175 34.0483 135.412 34.3249 135.768C34.5225 136.044 34.6213 136.36 34.6213 136.716C34.6213 137.23 34.5028 137.783 34.2656 138.376C34.068 138.929 33.9099 139.384 33.7914 139.74C32.9219 142.546 32.0722 145.332 31.2422 148.099C30.4122 150.826 29.9973 153.75 29.9973 156.872C29.9973 157.702 30.0763 158.611 30.2344 159.599C30.432 160.548 30.8075 161.358 31.3608 162.03C31.9141 162.702 32.744 163.038 33.8507 163.038C35.392 163.038 36.9729 162.465 38.5933 161.319C40.2532 160.173 41.8539 158.671 43.3952 156.813C44.9366 154.956 46.3396 152.92 47.6043 150.707C48.9086 148.494 49.9954 146.32 50.8649 144.186C51.0625 143.712 51.3194 142.961 51.6356 141.933C51.9913 140.906 52.3075 139.759 52.5841 138.495C52.8608 137.19 52.9991 135.965 52.9991 134.819C52.9991 133.792 52.8213 132.902 52.4656 132.151C52.1494 131.361 51.5763 130.887 50.7463 130.729C50.5487 130.689 50.2918 130.65 49.9757 130.61C49.6595 130.571 49.5014 130.373 49.5014 130.017C49.5014 129.661 49.6792 129.464 50.0349 129.424C50.4302 129.345 50.7463 129.306 50.9835 129.306C52.9991 129.306 54.3824 129.958 55.1333 131.262C55.8842 132.566 56.2597 134.108 56.2597 135.886C56.2597 137.586 56.0225 139.325 55.5483 141.103C55.074 142.882 54.5997 144.285 54.1255 145.312C53.0979 147.565 51.7937 149.838 50.2128 152.13C48.6714 154.383 46.972 156.457 45.1144 158.355C43.2964 160.252 41.4389 161.793 39.5418 162.979C37.6448 164.125 35.8268 164.698 34.0878 164.698C32.5859 164.698 31.3805 164.382 30.4715 163.749C29.5625 163.117 28.8709 162.287 28.3966 161.259C27.9223 160.232 27.5864 159.105 27.3888 157.88C27.2307 156.655 27.1517 155.45 27.1517 154.264C27.1517 152.762 27.2307 151.28 27.3888 149.818C27.5469 148.355 27.6655 146.893 27.7445 145.431C26.7564 146.379 25.551 147.624 24.1282 149.166C22.7054 150.707 21.1838 152.327 19.5634 154.027C17.8245 155.845 16.0262 157.623 14.1687 159.362C12.3111 161.062 10.5129 162.465 8.7739 163.571C7.03493 164.678 5.43428 165.231 3.97197 165.231ZM55.9151 164.757C53.5438 164.757 52.3581 163.591 52.3581 161.259C52.3581 160.35 52.5952 159.303 53.0695 158.117C53.5833 156.892 54.2552 155.667 55.0851 154.442C55.9151 153.217 56.8439 152.09 57.8714 151.063C58.899 149.996 59.9463 149.146 61.0134 148.514C62.1201 147.842 63.1476 147.506 64.0962 147.506C64.4123 147.506 64.6297 147.585 64.7483 147.743C64.9064 147.861 65.0249 148.079 65.104 148.395C65.183 148.553 65.2423 148.731 65.2818 148.929C65.3213 149.126 65.3806 149.324 65.4597 149.521C65.6178 149.798 65.7561 150.075 65.8747 150.351C65.9932 150.628 66.0525 150.924 66.0525 151.241C66.0525 151.636 65.9537 151.991 65.7561 152.308C65.5585 152.584 65.3213 152.841 65.0447 153.078C64.6495 153.434 64.0566 153.889 63.2662 154.442C62.4758 154.956 61.6063 155.489 60.6577 156.042C59.7487 156.556 58.8595 157.011 57.99 157.406C57.16 157.801 56.4882 158.038 55.9744 158.117C55.6187 158.671 55.2432 159.362 54.848 160.192C54.4923 160.983 54.3144 161.714 54.3144 162.386C54.3144 162.741 54.3935 163.058 54.5516 163.334C54.7492 163.611 55.0456 163.749 55.4408 163.749C56.0732 163.749 56.9031 163.453 57.9307 162.86C58.9978 162.228 60.1044 161.477 61.2506 160.607C62.3967 159.698 63.444 158.829 64.3926 157.999C65.3806 157.129 66.1118 156.457 66.586 155.983L68.4831 153.968C68.7202 153.73 68.9771 153.612 69.2538 153.612C69.4909 153.612 69.6095 153.711 69.6095 153.908C69.6095 154.145 69.2736 154.639 68.6017 155.39C67.9298 156.102 67.1196 156.912 66.1711 157.821C65.2621 158.69 64.4123 159.501 63.6219 160.252C62.8315 160.963 62.3177 161.417 62.0805 161.615C61.2506 162.326 60.302 163.038 59.2349 163.749C58.1678 164.421 57.0612 164.757 55.9151 164.757ZM56.9822 156.576C57.3774 156.339 57.9702 155.963 58.7607 155.45C59.5906 154.936 60.4404 154.363 61.3099 153.73C62.1793 153.098 62.9105 152.466 63.5033 151.833C64.1357 151.201 64.4519 150.648 64.4519 150.173C64.4519 150.055 64.4321 149.956 64.3926 149.877C64.3531 149.838 64.274 149.818 64.1554 149.818C63.6417 149.818 63.0291 150.094 62.3177 150.648C61.6063 151.201 60.8949 151.873 60.1835 152.663C59.4721 153.414 58.82 154.165 58.2271 154.916C57.6738 155.628 57.2588 156.181 56.9822 156.576ZM70.0703 165.883C69.3984 165.883 68.5882 165.627 67.6397 165.113C66.6912 164.599 66.0391 164.046 65.6834 163.453C65.4462 163.058 65.3277 162.583 65.3277 162.03C65.3277 160.765 65.7822 159.086 66.6912 156.991C67.6397 154.857 68.8254 152.565 70.2482 150.114C70.8805 149.008 71.6907 147.723 72.6788 146.261C73.7064 144.798 74.8525 143.297 76.1172 141.755C77.3819 140.174 78.7059 138.673 80.0892 137.25C81.512 135.827 82.915 134.582 84.2983 133.515C85.7211 132.448 87.0648 131.697 88.3295 131.262C88.8433 131.065 89.2978 130.966 89.693 130.966C90.444 130.966 90.9577 131.223 91.2344 131.736C91.5506 132.211 91.9656 132.606 92.4793 132.922C92.7955 133.12 92.9536 133.436 92.9536 133.871C92.9536 134.78 92.4596 135.866 91.4715 137.131C90.4835 138.396 89.199 139.74 87.6181 141.162C86.0372 142.585 84.3378 144.008 82.5198 145.431C80.7018 146.814 78.943 148.099 77.2436 149.284C75.5837 150.47 74.1609 151.458 72.9752 152.248C71.7895 153.039 71.0386 153.533 70.7224 153.73C70.1296 154.837 69.5763 156.102 69.0625 157.525C68.5487 158.947 68.2918 160.291 68.2918 161.556C68.2918 162.03 68.3511 162.564 68.4697 163.156C68.6278 163.71 69.023 163.986 69.6553 163.986C70.2482 163.986 70.9398 163.769 71.7303 163.334C72.5207 162.9 73.2914 162.425 74.0423 161.912C74.7932 161.358 75.386 160.904 75.8208 160.548C76.8484 159.718 77.7574 158.868 78.5478 157.999C79.3383 157.129 80.267 156.141 81.3341 155.035C81.4132 154.956 81.4922 154.896 81.5712 154.857C81.6503 154.778 81.7491 154.738 81.8677 154.738C82.1048 154.738 82.2234 154.877 82.2234 155.153C82.2234 155.39 82.1246 155.608 81.9269 155.805C80.3461 157.544 78.6861 159.343 76.9472 161.2C75.2477 163.058 73.3507 164.52 71.256 165.587C70.8608 165.785 70.4655 165.883 70.0703 165.883ZM72.6195 150.648C73.2123 150.45 74.0423 149.976 75.1094 149.225C76.1765 148.434 77.3621 147.506 78.6664 146.439C80.0101 145.372 81.3539 144.245 82.6976 143.059C84.0809 141.834 85.3456 140.668 86.4917 139.562C87.6774 138.416 88.6457 137.447 89.3966 136.657C90.1871 135.827 90.6416 135.254 90.7601 134.938C90.8392 134.701 90.8787 134.542 90.8787 134.463C90.8787 134.147 90.7206 133.93 90.4044 133.811C90.1278 133.693 89.8116 133.633 89.4559 133.633C89.2583 133.633 89.0607 133.653 88.8631 133.693C88.6655 133.732 88.4876 133.772 88.3295 133.811C87.6576 134.048 86.7684 134.641 85.6618 135.59C84.5552 136.499 83.3695 137.625 82.1048 138.969C80.8401 140.273 79.5754 141.656 78.3107 143.119C77.0855 144.581 75.9591 145.984 74.9315 147.328C73.9435 148.632 73.1728 149.739 72.6195 150.648ZM82.7212 166.121C81.417 166.121 80.3697 165.686 79.5792 164.816C78.8283 163.947 78.4529 162.84 78.4529 161.497C78.4529 160.232 78.8481 158.849 79.6385 157.347C80.4685 155.845 81.5158 154.383 82.7805 152.96C84.0848 151.537 85.4285 150.292 86.8118 149.225C88.1951 148.158 89.44 147.427 90.5466 147.031C91.0604 146.834 91.5347 146.735 91.9694 146.735C92.4832 146.735 92.8191 146.854 92.9772 147.091C93.1353 147.328 93.2539 147.585 93.3329 147.861C93.4515 148.138 93.6293 148.355 93.8665 148.514C94.3012 148.751 94.5186 149.166 94.5186 149.758C94.5186 150.193 94.4 150.727 94.1629 151.359C93.9653 151.952 93.6689 152.485 93.2736 152.96C92.8784 153.395 92.4042 153.612 91.8508 153.612C91.3371 153.612 91.0802 153.395 91.0802 152.96C91.0802 152.683 91.2185 152.387 91.4951 152.071C91.7718 151.754 92.0485 151.418 92.3251 151.063C92.6018 150.667 92.7401 150.292 92.7401 149.936C92.7401 149.581 92.5622 149.403 92.2065 149.403C91.5347 149.403 90.7047 149.758 89.7167 150.47C88.7286 151.142 87.7208 152.031 86.6932 153.138C85.6656 154.244 84.6974 155.43 83.7883 156.695C82.8793 157.92 82.1482 159.086 81.5949 160.192C81.0416 161.299 80.7649 162.208 80.7649 162.919C80.7649 163.433 80.8835 163.868 81.1206 164.224C81.3973 164.54 81.7925 164.698 82.3063 164.698C83.1362 164.698 84.065 164.461 85.0926 163.986C86.1201 163.512 87.0884 162.939 87.9974 162.267C88.946 161.595 89.7167 161.003 90.3095 160.489C91.4161 159.501 92.4832 158.513 93.5108 157.525C94.5779 156.497 95.6252 155.469 96.6528 154.442C96.7713 154.323 96.9097 154.264 97.0678 154.264C97.4235 154.264 97.6013 154.422 97.6013 154.738C97.6013 154.896 97.2851 155.331 96.6528 156.042C96.0204 156.714 95.2695 157.485 94.4 158.355C93.5305 159.224 92.7203 160.014 91.9694 160.726C91.2185 161.437 90.7245 161.892 90.4873 162.089C89.855 162.643 89.0843 163.236 88.1753 163.868C87.3058 164.5 86.3968 165.034 85.4483 165.468C84.4997 165.903 83.5907 166.121 82.7212 166.121ZM97.247 165.943C96.1009 165.943 95.2511 165.488 94.6978 164.579C94.1445 163.631 93.8679 162.662 93.8679 161.674C93.8679 160.331 94.2236 158.888 94.935 157.347C95.6463 155.766 96.4961 154.264 97.4841 152.841C98.5117 151.418 99.4207 150.252 100.211 149.343C100.409 149.106 100.666 148.988 100.982 148.988C101.338 148.988 101.693 149.126 102.049 149.403C102.879 148.81 103.827 148.276 104.895 147.802C106.001 147.328 107.068 147.091 108.096 147.091C109.874 147.091 110.764 148 110.764 149.818C110.764 151.557 110.329 153.157 109.459 154.62C108.629 156.082 107.701 157.505 106.673 158.888C106.396 159.244 106.12 159.58 105.843 159.896C105.606 160.212 105.329 160.528 105.013 160.844C106.752 160.37 108.274 159.58 109.578 158.473C110.882 157.366 112.167 156.22 113.431 155.035C113.589 154.877 113.728 154.758 113.846 154.679C114.004 154.56 114.202 154.501 114.439 154.501C114.637 154.501 114.736 154.639 114.736 154.916C114.736 154.956 114.676 155.054 114.558 155.213C114.439 155.371 114.36 155.489 114.321 155.568C113.016 157.149 111.396 158.631 109.459 160.014C107.562 161.358 105.566 162.188 103.472 162.504C102.721 163.255 101.772 164.026 100.626 164.816C99.48 165.567 98.3536 165.943 97.247 165.943ZM101.871 161.259C102.029 161.259 102.167 161.259 102.286 161.259C102.444 161.259 102.602 161.24 102.76 161.2C103.551 160.252 104.361 159.125 105.191 157.821C106.06 156.517 106.792 155.173 107.384 153.79C107.977 152.367 108.274 151.082 108.274 149.936C108.274 149.225 107.938 148.869 107.266 148.869C106.594 148.869 105.823 149.067 104.954 149.462C104.084 149.857 103.353 150.272 102.76 150.707V150.885C102.76 151.28 102.444 151.853 101.812 152.604C101.219 153.315 100.567 154.047 99.8555 154.798C99.1836 155.548 98.6895 156.181 98.3734 156.695C98.2548 157.999 98.5117 159.086 99.1441 159.955C99.7764 160.825 100.685 161.259 101.871 161.259ZM97.3063 164.935C98.0572 164.935 98.7884 164.658 99.4998 164.105C100.251 163.552 100.883 163.038 101.397 162.564C100.448 162.485 99.5788 162.168 98.7884 161.615C98.0374 161.022 97.3458 160.37 96.7134 159.659C96.5949 159.896 96.4368 160.35 96.2392 161.022C96.0416 161.694 95.9428 162.366 95.9428 163.038C95.9428 163.552 96.0416 164.006 96.2392 164.401C96.4368 164.757 96.7925 164.935 97.3063 164.935ZM135.008 166.002C134.574 166.002 134.06 165.824 133.467 165.468C132.874 165.152 132.341 164.757 131.866 164.283C131.432 163.769 131.214 163.255 131.214 162.741C131.214 162.07 131.491 161.22 132.044 160.192C132.598 159.165 133.27 158.098 134.06 156.991C134.89 155.884 135.68 154.857 136.431 153.908C137.222 152.92 137.854 152.13 138.328 151.537C138.882 150.826 139.139 150.43 139.099 150.351C139.06 150.233 139.04 150.114 139.04 149.996C137.933 150.549 136.688 151.379 135.305 152.485C133.922 153.553 132.598 154.679 131.333 155.865C130.068 157.05 129.041 158.117 128.25 159.066C127.697 159.698 127.163 160.37 126.65 161.082C126.175 161.753 125.701 162.445 125.227 163.156C124.95 163.552 124.594 163.967 124.16 164.401C123.764 164.836 123.31 165.054 122.796 165.054C122.52 165.054 122.263 164.955 122.025 164.757C121.828 164.559 121.729 164.322 121.729 164.046C121.729 163.492 122.085 162.662 122.796 161.556C123.547 160.41 124.318 159.165 125.108 157.821C125.622 156.951 126.175 156.062 126.768 155.153C127.4 154.205 127.934 153.355 128.369 152.604C128.843 151.853 129.08 151.339 129.08 151.063H129.021C128.902 151.063 128.626 151.162 128.191 151.359C127.796 151.557 127.578 151.675 127.539 151.715C125.602 153.019 123.745 154.639 121.966 156.576C120.227 158.513 118.627 160.35 117.164 162.089C116.888 162.445 116.591 162.821 116.275 163.216C115.959 163.571 115.643 163.927 115.326 164.283C115.168 164.441 114.951 164.579 114.674 164.698C114.398 164.777 114.141 164.816 113.904 164.816C113.667 164.816 113.331 164.737 112.896 164.579C112.501 164.421 112.303 164.145 112.303 163.749C112.303 163.275 112.52 162.583 112.955 161.674C113.39 160.765 113.923 159.738 114.556 158.592C115.228 157.446 115.919 156.319 116.631 155.213C117.382 154.066 118.054 153.039 118.646 152.13C119.279 151.181 119.733 150.49 120.01 150.055C118.785 151.122 117.678 152.11 116.69 153.019C115.741 153.889 114.655 155.074 113.429 156.576C113.35 156.655 113.192 156.813 112.955 157.05C112.718 157.287 112.481 157.426 112.244 157.465C112.165 157.465 112.066 157.406 111.947 157.287C111.868 157.169 111.849 157.07 111.888 156.991C111.928 156.793 112.204 156.398 112.718 155.805C113.232 155.173 113.864 154.462 114.615 153.671C115.366 152.881 116.117 152.09 116.868 151.3C117.619 150.509 118.271 149.818 118.824 149.225C119.417 148.632 119.773 148.257 119.891 148.099C120.761 147.19 121.531 146.458 122.203 145.905C122.915 145.352 123.587 145.075 124.219 145.075C124.575 145.075 124.99 145.233 125.464 145.549C125.938 145.866 126.175 146.241 126.175 146.676C126.175 146.834 126.136 146.933 126.057 146.972C124.278 148.434 122.697 150.114 121.314 152.011C119.931 153.869 118.627 155.726 117.401 157.584C117.362 157.623 117.224 157.841 116.986 158.236C116.789 158.631 116.552 159.066 116.275 159.54C115.998 160.014 115.761 160.429 115.564 160.785C115.366 161.141 115.287 161.299 115.326 161.259C117.421 159.283 119.615 157.189 121.907 154.975C124.239 152.723 126.491 150.687 128.665 148.869C128.981 148.593 129.337 148.355 129.732 148.158C130.128 147.96 130.542 147.861 130.977 147.861C131.452 147.861 131.827 148.02 132.104 148.336C132.42 148.612 132.578 148.988 132.578 149.462C132.578 149.976 132.42 150.49 132.104 151.003C131.787 151.517 131.491 151.991 131.214 152.426C130.819 153.138 130.384 153.849 129.91 154.56C129.475 155.272 129.159 155.845 128.962 156.28C130.78 154.659 132.519 153.098 134.179 151.596C135.838 150.055 137.518 148.731 139.218 147.624C139.613 147.348 140.087 147.209 140.64 147.209C140.996 147.209 141.451 147.269 142.004 147.387C142.597 147.506 143.111 147.684 143.545 147.921C144.02 148.158 144.257 148.494 144.257 148.929C144.257 149.166 144.178 149.403 144.02 149.64C143.861 149.838 143.684 150.015 143.486 150.173L140.7 152.545C140.186 153.019 139.554 153.691 138.803 154.56C138.091 155.39 137.38 156.319 136.668 157.347C135.997 158.335 135.423 159.362 134.949 160.429C134.514 161.497 134.297 162.485 134.297 163.394C134.297 163.947 134.435 164.224 134.712 164.224C134.87 164.224 135.048 164.184 135.246 164.105C135.443 163.986 135.661 163.868 135.898 163.749C136.728 163.275 137.617 162.583 138.565 161.674C139.514 160.765 140.443 159.797 141.352 158.77C142.3 157.742 143.13 156.833 143.842 156.042C144.553 155.252 145.087 154.758 145.442 154.56C145.521 154.481 145.62 154.462 145.739 154.501C145.897 154.541 145.976 154.62 145.976 154.738C145.976 154.896 145.897 155.074 145.739 155.272C145.581 155.469 145.462 155.628 145.383 155.746C144.711 156.537 144.079 157.307 143.486 158.058C142.933 158.77 142.3 159.52 141.589 160.311C140.759 161.259 139.83 162.267 138.803 163.334C137.815 164.362 136.767 165.192 135.661 165.824C135.503 165.943 135.285 166.002 135.008 166.002ZM146.113 164.757C143.742 164.757 142.556 163.591 142.556 161.259C142.556 160.35 142.794 159.303 143.268 158.117C143.782 156.892 144.453 155.667 145.283 154.442C146.113 153.217 147.042 152.09 148.07 151.063C149.097 149.996 150.145 149.146 151.212 148.514C152.318 147.842 153.346 147.506 154.294 147.506C154.611 147.506 154.828 147.585 154.947 147.743C155.105 147.861 155.223 148.079 155.302 148.395C155.381 148.553 155.441 148.731 155.48 148.929C155.52 149.126 155.579 149.324 155.658 149.521C155.816 149.798 155.954 150.075 156.073 150.351C156.192 150.628 156.251 150.924 156.251 151.241C156.251 151.636 156.152 151.991 155.954 152.308C155.757 152.584 155.52 152.841 155.243 153.078C154.848 153.434 154.255 153.889 153.465 154.442C152.674 154.956 151.805 155.489 150.856 156.042C149.947 156.556 149.058 157.011 148.188 157.406C147.358 157.801 146.686 158.038 146.173 158.117C145.817 158.671 145.442 159.362 145.046 160.192C144.691 160.983 144.513 161.714 144.513 162.386C144.513 162.741 144.592 163.058 144.75 163.334C144.948 163.611 145.244 163.749 145.639 163.749C146.271 163.749 147.101 163.453 148.129 162.86C149.196 162.228 150.303 161.477 151.449 160.607C152.595 159.698 153.642 158.829 154.591 157.999C155.579 157.129 156.31 156.457 156.784 155.983L158.681 153.968C158.919 153.73 159.175 153.612 159.452 153.612C159.689 153.612 159.808 153.711 159.808 153.908C159.808 154.145 159.472 154.639 158.8 155.39C158.128 156.102 157.318 156.912 156.369 157.821C155.46 158.69 154.611 159.501 153.82 160.252C153.03 160.963 152.516 161.417 152.279 161.615C151.449 162.326 150.5 163.038 149.433 163.749C148.366 164.421 147.26 164.757 146.113 164.757ZM147.181 156.576C147.576 156.339 148.169 155.963 148.959 155.45C149.789 154.936 150.639 154.363 151.508 153.73C152.378 153.098 153.109 152.466 153.702 151.833C154.334 151.201 154.65 150.648 154.65 150.173C154.65 150.055 154.63 149.956 154.591 149.877C154.551 149.838 154.472 149.818 154.354 149.818C153.84 149.818 153.227 150.094 152.516 150.648C151.805 151.201 151.093 151.873 150.382 152.663C149.67 153.414 149.018 154.165 148.425 154.916C147.872 155.628 147.457 156.181 147.181 156.576Z" fill="#3D2B1F"/>
</svg>
